<svg id="visual" viewBox="0 0 900 600" width="900" height="600" xmlns="http://www.w3.org/2000/svg" xmlns:xlink="http://www.w3.org/1999/xlink" version="1.1"><g><g transform="translate(740 395)"><path d="M54.7 -64.4C66.7 -55.1 69.4 -33.9 76.1 -11.2C82.8 11.6 93.5 35.9 87.1 53.5C80.8 71.2 57.3 82.1 35.2 85.2C13.1 88.3 -7.8 83.4 -28.6 76.7C-49.5 69.9 -70.4 61.3 -80 45.7C-89.5 30.1 -87.8 7.5 -86.3 -17.7C-84.8 -42.9 -83.7 -70.6 -69.3 -79.5C-55 -88.4 -27.5 -78.4 -3.1 -74.8C21.4 -71.1 42.7 -73.7 54.7 -64.4Z" fill="#2f6e77"></path></g><g transform="translate(278 422)"><path d="M54.8 -71.2C68.8 -53.5 76.5 -34.2 78.1 -15.2C79.8 3.8 75.4 22.4 65.9 37.3C56.4 52.2 41.7 63.3 22.6 76.6C3.4 89.9 -20.3 105.5 -36.3 99.7C-52.3 93.9 -60.5 66.8 -70.7 43.6C-80.9 20.3 -93 0.9 -89.1 -14.8C-85.3 -30.5 -65.5 -42.5 -48 -59.6C-30.5 -76.6 -15.2 -98.7 2.6 -101.8C20.4 -104.9 40.7 -88.8 54.8 -71.2Z" fill="#2f6e77"></path></g><g transform="translate(498 212)"><path d="M65.8 -75.3C84.1 -63.1 96.9 -41.2 95.8 -20.8C94.6 -0.5 79.6 18.4 65.3 32.6C51.1 46.9 37.6 56.5 20.5 67.5C3.5 78.5 -17 90.8 -38.6 90C-60.3 89.2 -83 75.1 -90.5 55.4C-98.1 35.8 -90.5 10.6 -87.1 -16.5C-83.8 -43.7 -84.6 -72.7 -70.8 -85.7C-57 -98.7 -28.5 -95.7 -2.4 -92.9C23.8 -90.1 47.5 -87.5 65.8 -75.3Z" fill="#2f6e77"></path></g><g transform="translate(191 152)"><path d="M73 -86.9C91.7 -71.2 102.1 -45.5 107.5 -18.4C112.9 8.6 113.3 37.1 98.6 51.6C83.9 66.1 54.1 66.5 30.9 67.4C7.7 68.2 -9 69.5 -27.8 66.8C-46.5 64.1 -67.3 57.5 -79.8 42.7C-92.3 27.9 -96.6 5.1 -89.4 -12.2C-82.1 -29.6 -63.3 -41.3 -46.5 -57.3C-29.7 -73.3 -14.8 -93.6 6.1 -100.9C27.1 -108.2 54.2 -102.5 73 -86.9Z" fill="#2f6e77"></path></g></g></svg>