<svg id="visual" viewBox="0 0 900 600" width="900" height="600" xmlns="http://www.w3.org/2000/svg" xmlns:xlink="http://www.w3.org/1999/xlink" version="1.1"><g transform="translate(447.9330094307477 302.85133554435726)"><path d="M155.2 -255.5C204.4 -240.4 249.9 -205.5 284.5 -159.6C319.2 -113.7 343.1 -56.8 332.7 -6C322.3 44.8 277.6 89.7 244.4 138C211.1 186.4 189.3 238.2 150.5 262C111.7 285.7 55.8 281.4 3.8 274.9C-48.3 268.4 -96.7 259.8 -141.7 239.6C-186.7 219.4 -228.5 187.7 -266.8 145.9C-305.1 104 -340.1 52 -328.9 6.5C-317.7 -39.1 -260.3 -78.1 -228.2 -130.8C-196.2 -183.5 -189.3 -249.8 -155.5 -273.8C-121.7 -297.7 -60.8 -279.4 -3.9 -272.6C53 -265.8 106 -270.6 155.2 -255.5" fill="#2f6e77"></path></g></svg>