<svg id="visual" viewBox="0 0 900 600" width="900" height="600" xmlns="http://www.w3.org/2000/svg" xmlns:xlink="http://www.w3.org/1999/xlink" version="1.1"><path d="M0 377L12.5 385.3C25 393.7 50 410.3 75 417.2C100 424 125 421 150 421.2C175 421.3 200 424.7 225 430.7C250 436.7 275 445.3 300 454.2C325 463 350 472 375 454.3C400 436.7 425 392.3 450 388.5C475 384.7 500 421.3 525 436.2C550 451 575 444 600 445.8C625 447.7 650 458.3 675 450.5C700 442.7 725 416.3 750 417.8C775 419.3 800 448.7 825 450C850 451.3 875 424.7 887.5 411.3L900 398" fill="none" stroke-linecap="round" stroke-linejoin="miter" stroke="#2f6e77" stroke-width="40"></path></svg>