<svg id="visual" viewBox="0 0 960 540" width="960" height="540" xmlns="http://www.w3.org/2000/svg" xmlns:xlink="http://www.w3.org/1999/xlink" version="1.1"><path d="M0 104L26.7 107.5C53.3 111 106.7 118 160 125.2C213.3 132.3 266.7 139.7 320 136.2C373.3 132.7 426.7 118.3 480 113.8C533.3 109.3 586.7 114.7 640 120.8C693.3 127 746.7 134 800 134C853.3 134 906.7 127 933.3 123.5L960 120L960 0L933.3 0C906.7 0 853.3 0 800 0C746.7 0 693.3 0 640 0C586.7 0 533.3 0 480 0C426.7 0 373.3 0 320 0C266.7 0 213.3 0 160 0C106.7 0 53.3 0 26.7 0L0 0Z" fill="#1d1d1e"></path><path d="M0 249L26.7 261.7C53.3 274.3 106.7 299.7 160 308.7C213.3 317.7 266.7 310.3 320 305C373.3 299.7 426.7 296.3 480 289.2C533.3 282 586.7 271 640 281.7C693.3 292.3 746.7 324.7 800 339.2C853.3 353.7 906.7 350.3 933.3 348.7L960 347L960 118L933.3 121.5C906.7 125 853.3 132 800 132C746.7 132 693.3 125 640 118.8C586.7 112.7 533.3 107.3 480 111.8C426.7 116.3 373.3 130.7 320 134.2C266.7 137.7 213.3 130.3 160 123.2C106.7 116 53.3 109 26.7 105.5L0 102Z" fill="#2f6e77"></path><path d="M0 476L26.7 469.7C53.3 463.3 106.7 450.7 160 450.7C213.3 450.7 266.7 463.3 320 469.7C373.3 476 426.7 476 480 468.8C533.3 461.7 586.7 447.3 640 448.3C693.3 449.3 746.7 465.7 800 471C853.3 476.3 906.7 470.7 933.3 467.8L960 465L960 345L933.3 346.7C906.7 348.3 853.3 351.7 800 337.2C746.7 322.7 693.3 290.3 640 279.7C586.7 269 533.3 280 480 287.2C426.7 294.3 373.3 297.7 320 303C266.7 308.3 213.3 315.7 160 306.7C106.7 297.7 53.3 272.3 26.7 259.7L0 247Z" fill="#2f6e77"></path><path d="M0 541L26.7 541C53.3 541 106.7 541 160 541C213.3 541 266.7 541 320 541C373.3 541 426.7 541 480 541C533.3 541 586.7 541 640 541C693.3 541 746.7 541 800 541C853.3 541 906.7 541 933.3 541L960 541L960 463L933.3 465.8C906.7 468.7 853.3 474.3 800 469C746.7 463.7 693.3 447.3 640 446.3C586.7 445.3 533.3 459.7 480 466.8C426.7 474 373.3 474 320 467.7C266.7 461.3 213.3 448.7 160 448.7C106.7 448.7 53.3 461.3 26.7 467.7L0 474Z" fill="#1d1d1e"></path></svg>